<?xml version="1.0" encoding="utf-8"?>
<!-- Generator: Adobe Illustrator 15.0.0, SVG Export Plug-In  -->
<!DOCTYPE svg PUBLIC "-//W3C//DTD SVG 1.1//EN" "http://www.w3.org/Graphics/SVG/1.1/DTD/svg11.dtd" [
	<!ENTITY ns_flows "http://ns.adobe.com/Flows/1.0/">
]>
<svg version="1.1"
	 xmlns="http://www.w3.org/2000/svg" xmlns:xlink="http://www.w3.org/1999/xlink" xmlns:a="http://ns.adobe.com/AdobeSVGViewerExtensions/3.0/"
	 x="0px" y="0px" width="262px" height="88px" viewBox="-0.412 0.282 262 88" enable-background="new -0.412 0.282 262 88"
	 xml:space="preserve">
<defs>
</defs>
<path fill="#656B6B" d="M194.986,83.925h-14.195v-1.948c0.452-0.039,0.935-0.083,1.445-0.132c0.513-0.049,0.935-0.123,1.27-0.222
	c0.55-0.177,0.963-0.486,1.239-0.931c0.275-0.442,0.413-1.019,0.413-1.727V45.236c0-0.709-0.152-1.373-0.457-1.993
	c-0.306-0.621-0.704-1.108-1.195-1.462c-0.354-0.235-1.004-0.453-1.947-0.65c-0.945-0.196-1.702-0.314-2.272-0.354v-1.889
	l10.947-0.649l0.414,0.442v39.932c0,0.688,0.129,1.254,0.384,1.697c0.257,0.443,0.671,0.782,1.24,1.019
	c0.433,0.197,0.86,0.345,1.284,0.442c0.422,0.099,0.9,0.167,1.431,0.206V83.925z"/>
<path fill="#656B6B" d="M212.754,83.925h-14.049v-1.948c0.452-0.039,0.919-0.078,1.401-0.118c0.481-0.039,0.9-0.117,1.254-0.235
	c0.552-0.176,0.959-0.487,1.226-0.928c0.266-0.442,0.398-1.018,0.398-1.725V61.019c0-0.63-0.145-1.205-0.429-1.726
	c-0.285-0.521-0.684-0.958-1.195-1.312c-0.373-0.236-0.915-0.437-1.623-0.604c-0.708-0.167-1.358-0.27-1.947-0.311V55.12
	l10.271-0.65l0.411,0.413v23.729c0,0.688,0.134,1.259,0.397,1.711c0.264,0.453,0.678,0.788,1.245,1.004
	c0.43,0.177,0.85,0.32,1.26,0.428c0.411,0.108,0.87,0.182,1.38,0.221V83.925z"/>
<path fill="#656B6B" d="M238.016,41.78c0,0.885-0.235,1.633-0.707,2.243c-0.474,0.61-1.191,0.915-2.155,0.915
	c-0.609,0-1.147-0.127-1.608-0.383c-0.464-0.255-0.892-0.601-1.284-1.033c-0.394-0.433-0.757-0.925-1.092-1.476
	c-0.333-0.55-0.619-0.993-0.856-1.328c-1.317,0.06-2.336,0.977-3.053,2.754c-0.719,1.777-1.079,4.609-1.079,8.496v2.975h7.495v2.833
	h-7.495v20.896c0,0.689,0.134,1.25,0.399,1.683s0.683,0.757,1.254,0.974c0.472,0.177,1.102,0.32,1.889,0.428
	c0.786,0.108,1.467,0.182,2.037,0.221v1.949h-15.347v-1.949c0.452-0.039,0.919-0.078,1.402-0.118
	c0.481-0.039,0.898-0.118,1.253-0.236c0.551-0.176,0.959-0.485,1.226-0.929c0.264-0.443,0.397-1.018,0.397-1.727V57.775h-5.754
	v-2.833h5.754v-1.856c0-4.418,1.147-7.998,3.439-10.738c2.292-2.74,5.159-4.11,8.602-4.11c1.752,0,3.07,0.345,3.955,1.033
	C237.574,39.961,238.016,40.796,238.016,41.78"/>
<path fill="#656B6B" d="M261.864,77.078c-1.22,2.322-2.853,4.172-4.898,5.548c-2.047,1.378-4.399,2.066-7.055,2.066
	c-2.341,0-4.394-0.413-6.153-1.24c-1.762-0.827-3.212-1.948-4.354-3.365c-1.141-1.416-1.991-3.069-2.553-4.957
	c-0.56-1.89-0.84-3.886-0.84-5.991c0-1.889,0.299-3.744,0.899-5.563c0.6-1.82,1.48-3.458,2.641-4.915
	c1.123-1.397,2.515-2.522,4.178-3.379c1.662-0.855,3.526-1.284,5.592-1.284c2.126,0,3.945,0.335,5.461,1.003
	c1.515,0.669,2.744,1.584,3.688,2.745c0.905,1.102,1.579,2.4,2.022,3.896c0.441,1.495,0.664,3.118,0.664,4.869v1.948h-19.273
	c0,1.913,0.183,3.649,0.548,5.208c0.362,1.558,0.939,2.929,1.726,4.111c0.768,1.144,1.771,2.046,3.01,2.706
	c1.24,0.66,2.715,0.991,4.428,0.991c1.75,0,3.261-0.411,4.53-1.231c1.27-0.822,2.493-2.299,3.674-4.435L261.864,77.078z
	 M255.34,65.98c0-1.098-0.093-2.274-0.279-3.53c-0.188-1.255-0.487-2.306-0.901-3.149c-0.452-0.902-1.071-1.637-1.858-2.207
	c-0.787-0.569-1.801-0.854-3.041-0.854c-2.064,0-3.783,0.858-5.149,2.575c-1.368,1.716-2.11,4.104-2.229,7.164H255.34z"/>
<path fill-rule="evenodd" clip-rule="evenodd" fill="#656B6B" d="M203.985,48.899c-0.876-0.699-1.757-1.52-2.629-2.321
	c-0.46-0.424-0.853-0.798-1.215-1.261c-0.419-0.537-0.816-1.178-0.752-2.122c0.06-0.888,0.675-1.551,1.305-1.892
	c0.803-0.432,2.073-0.241,2.678,0.293c0.084,0.075,0.181,0.202,0.291,0.322c0.063,0.069,0.193,0.333,0.276,0.339
	c0.078,0.004,0.183-0.189,0.262-0.277c0.251-0.281,0.541-0.578,0.906-0.722c0.907-0.357,1.986-0.142,2.599,0.384
	c0.391,0.334,0.719,0.904,0.77,1.476c0.045,0.513-0.09,1.068-0.229,1.4c-0.204,0.475-0.558,0.878-0.908,1.26
	C206.308,46.898,205.146,47.949,203.985,48.899"/>
<path fill-rule="evenodd" clip-rule="evenodd" fill="#7BB24A" d="M158.197,44.94l-0.355-0.484c-1.051-1.594-1.13-2.219-1.056-4.554
	c2.068-0.049,3.204,4.047,4.646,4.605c-0.182-1.505-1.997-6.488-0.716-6.749c3.664-0.746,3.703,4.746,4.126,7.44
	c2.462,0.393,4.356,1.58,5.703,3.447c0.452,0.626,1.099,1.355,1.166,1.862c0.092,0.703-0.289,1.64-0.572,2.054
	c-0.832,1.215-3.04,1.189-3.941,2.331c0.038,1.569-0.641,2.574-1.466,3.776c-1.351,1.967-1.55,3.563-3.861,4.286
	c-0.453,0.697-0.54,2.473,0.066,3.039c1.039,0.274,2.272,0.361,2.474,1.447c0.06,0.429-0.249,0.478-0.548,0.536
	c0.05,0.411,0.145,0.512-0.12,0.758c-1.478,0.466-4.338-0.097-5.307-0.835c-1.24-0.951-1.053-2.797-2.115-3.831
	c-0.63-0.026-0.94,0.28-1.309,0.524c1.259,0.417,2.455,0.896,2.348,2.639c-0.527,0.646-1.999,0.735-3.046,0.499
	c-0.191,0.132,0.271,0.449-0.011,0.759c-2.447,0.819-7.226,0.24-10.091-0.146c-1.003-0.136-1.971-0.471-2.921-0.584
	c-2.289-0.278-4.156,0.701-5.747-0.41c-0.793-0.555-1.862-1.962-2.133-2.636c-0.47-1.172-0.383-2.697,0.271-3.686
	c0.502,0.012,0.317,0.69,0.749,0.771c1.21-0.104,1.819,0.373,2.485,0.795c0.004-3.385,1.49-5.308,3.142-7.117
	c0.445-0.487,0.919-1.086,1.323-1.392c3.347-2.537,9.522-2.509,14.587-3.044c0.632-0.066,0.791-0.365,1.42-0.631
	c1.356-0.573,3.491-0.042,3.709-1.357c0.181-1.082-0.846-1.583-1.268-2.297C159.754,46.753,158.197,44.94,158.197,44.94"/>
<path fill-rule="evenodd" clip-rule="evenodd" fill="#8DC63F" d="M149.87,62.228c-0.001-0.799-0.233-1.687-0.195-2.418
	c0.244-4.623,0.444-9.954,1.326-14.529c0.174-0.912,0.779-1.81,1.02-2.654c0.832-2.928-0.432-5.12-0.318-7.902
	c0.134-3.286,0.136-6.601,0.284-9.612l0.03-0.512c-0.249-1.735-0.21-5.008,0.157-7.347l0.031-0.215
	c0.305-2.844,2.908-2.202,2.908-2.202c2.66,0.547,3.821-1.667,3.986-2.103c0.359-0.6,2.342-1.743,2.454-1.938
	c1.013-1.122,1.071-2.179,1.071-2.179l0.522-1.394c1.002-2.83-2.869-3.244-2.869-3.244l-3.874-0.369
	c-2.23-0.089-3.434-0.617-3.434-0.617c-1.843-2.255-4.449-2.38-4.449-2.38l-0.114-0.021c-3.308-0.575-5.847,0.876-8.8,1.784
	c-0.251,0.077-0.968,0.692-1.096,0.925c-1.626,3-5.807,5.728-3.974,9.753c1.231-0.092,0.894-2.415,2.423-2.081
	c-0.691,2.042-0.84,4.243-1.22,6.68c-0.114,0.732-0.189,1.293-0.533,2.425l-0.061,0.221c-0.016,0.063-2.026,8.354-2.209,11.339
	c-0.962,0.568-0.833,1.668-1.405,2.619c-0.149,0.247-0.637,0.516-0.854,0.837c-0.509,0.754-1.163,2.291-1.446,3.074
	c-0.772,2.127-0.913,3.962-1.351,6.287c-0.005,0.024-0.359-0.058-0.386-0.035c-0.109,0.087-0.023,0.754-0.083,0.907
	c-0.121,0.308-0.433,0.609-0.468,0.874c-0.072,0.522-0.268,0.18-0.428,0.419c-0.542,0.813-0.556,1.339-0.978,2.2
	c-0.158,0.323-0.774,0.258-0.853,0.838c-0.068,0.496-0.319,0.207-0.427,0.419c-0.393,0.765-0.837,2.066-1.021,2.654
	c-0.91,2.915-1.196,6.137-0.869,9.535c0.204,1.316-0.436,0.429,0.204,1.316c-1.572,2.185,1.987,3.175,3.593,3.57
	c0.295,0.073,6.158,1.826,6.433,1.685c0.327-0.168,1.169-1.022,1.404-1.372c0.31-0.462,0.295,0.118,0.305,0.653l0.215,0.522
	c0.966,3.189,2.387,6.056,2.758,9.766c0.267,2.671-0.582,5.353,0.505,8.059c2.446,1.82,5.493,1.057,7.065-1.24
	c-0.349-1.714-0.337-3.052-1.243-4.896c-0.25-0.845-1.001-1.185-1.26-2.018c-0.978-3.15,0.267-6.775-0.297-10.437
	c0,0,0.285-1.251,1.036,0.189c0.995,2.684,2.8,5.765,2.701,9.544c0.093,1.003,1.079,1.239,1.504,2.508
	c0.48,1.432-0.322,3.546,1.004,4.515c1.865,1.35,5.033,1.062,7.022,0c0.555-3.566-2.185-3.834-3.01-6.02
	c-2.233-4.573-2.095-10.062-2.32-15.565L149.87,62.228z"/>
<path fill="#FFFFFF" d="M140.737,87.938c-1.138,0-2.253-0.382-3.225-1.104l-0.104-0.078l-0.049-0.12
	c-0.728-1.812-0.633-3.597-0.543-5.323c0.053-0.988,0.102-1.921,0.008-2.862c-0.255-2.551-1.036-4.746-1.792-6.868
	c-0.324-0.911-0.659-1.852-0.949-2.811l-0.192-0.461c-0.365,0.386-0.817,0.8-1.081,0.935c-0.077,0.04-0.165,0.06-0.267,0.06
	c-0.429,0-2.048-0.421-5.779-1.503c-0.389-0.113-0.652-0.189-0.708-0.203c-1.58-0.388-3.737-1.06-4.232-2.403
	c-0.188-0.512-0.123-1.05,0.193-1.604c-0.211-0.315-0.295-0.547-0.069-0.799c0.005-0.053,0.009-0.185-0.034-0.458
	c-0.338-3.51-0.041-6.779,0.884-9.742c0.203-0.647,0.651-1.949,1.05-2.727c0.103-0.203,0.263-0.284,0.388-0.319
	c0.096-0.554,0.521-0.761,0.751-0.874c0.054-0.026,0.134-0.065,0.156-0.085c0.141-0.297,0.239-0.576,0.335-0.845
	c0.147-0.417,0.3-0.849,0.655-1.38c0.11-0.165,0.247-0.24,0.362-0.274c0.044-0.232,0.176-0.43,0.305-0.62
	c0.066-0.098,0.134-0.2,0.172-0.284c0.007-0.062,0.003-0.152,0.003-0.246c-0.003-0.386-0.005-0.691,0.234-0.88l0.125-0.101
	l0.17-0.003c0.085-0.476,0.159-0.932,0.231-1.375c0.25-1.532,0.485-2.979,1.063-4.569c0.309-0.855,0.978-2.405,1.497-3.174
	c0.149-0.222,0.366-0.401,0.558-0.559c0.101-0.082,0.251-0.207,0.284-0.26c0.184-0.305,0.287-0.637,0.395-0.988
	c0.175-0.567,0.371-1.202,0.962-1.649c0.266-3.204,2.186-11.121,2.206-11.198l0.063-0.227c0.316-1.043,0.397-1.571,0.5-2.239
	l0.021-0.135c0.099-0.632,0.182-1.248,0.263-1.848c0.191-1.422,0.374-2.779,0.726-4.081c-0.087,0.127-0.176,0.305-0.284,0.539
	c-0.246,0.532-0.584,1.259-1.416,1.322l-0.321,0.024l-0.134-0.293c-1.433-3.148,0.519-5.58,2.24-7.724
	c0.674-0.839,1.31-1.63,1.748-2.44c0.176-0.324,0.981-1.028,1.366-1.146c0.671-0.207,1.333-0.447,1.974-0.678
	C143.155,0.639,144.922,0,146.895,0c0.529,0,1.064,0.046,1.589,0.138l0.093,0.017c0.336,0.024,2.822,0.268,4.671,2.452
	c0.314,0.116,1.413,0.472,3.174,0.542l3.899,0.371c0.097,0.01,2.254,0.256,3.108,1.614c0.401,0.638,0.453,1.394,0.151,2.244
	l-0.503,1.346c-0.036,0.29-0.221,1.307-1.164,2.361c-0.102,0.133-0.297,0.27-0.806,0.616c-0.491,0.334-1.393,0.948-1.598,1.249
	c-0.155,0.357-1.164,2.435-3.581,2.435c-0.293,0-0.599-0.032-0.908-0.095c-0.017-0.004-0.226-0.053-0.516-0.053
	c-1.089,0-1.709,0.623-1.84,1.852l-0.033,0.231c-0.344,2.193-0.415,5.427-0.157,7.216l0.006,0.046l-0.033,0.558
	c-0.079,1.601-0.115,3.266-0.155,5.028c-0.032,1.497-0.066,3.044-0.129,4.577c-0.044,1.063,0.129,2.069,0.296,3.041
	c0.262,1.529,0.533,3.109,0.005,4.968c-0.115,0.404-0.302,0.81-0.483,1.202c-0.216,0.47-0.44,0.956-0.527,1.413
	c-0.788,4.09-1.032,8.859-1.247,13.068l-0.072,1.399c-0.019,0.348,0.034,0.753,0.09,1.183c0.05,0.386,0.102,0.785,0.106,1.177
	l0.119,0.832c0.03,0.725,0.053,1.451,0.077,2.173c0.155,4.796,0.302,9.326,2.197,13.208c0.284,0.747,0.794,1.24,1.334,1.763
	c0.987,0.956,2.106,2.039,1.718,4.53l-0.035,0.228l-0.204,0.109c-1.146,0.611-2.604,0.961-4.001,0.961l0,0
	c-1.396,0-2.609-0.344-3.508-0.995c-1.02-0.745-1.018-1.986-1.017-3.082c0-0.614,0.001-1.193-0.156-1.66
	c-0.174-0.524-0.469-0.848-0.753-1.16c-0.35-0.385-0.71-0.783-0.772-1.452l-0.002-0.027l0-0.027
	c0.075-2.826-0.974-5.294-1.898-7.471c-0.276-0.651-0.538-1.266-0.763-1.873c-0.046-0.087-0.088-0.157-0.124-0.214
	c0.219,1.628,0.107,3.229-0.002,4.778c-0.134,1.912-0.26,3.717,0.25,5.359c0.1,0.321,0.302,0.558,0.536,0.832
	c0.261,0.307,0.557,0.653,0.714,1.153c0.684,1.404,0.859,2.519,1.044,3.699c0.064,0.41,0.13,0.83,0.221,1.276l0.039,0.191
	l-0.11,0.161C144.181,87.021,142.5,87.938,140.737,87.938z M138.168,86.169c0.785,0.555,1.671,0.846,2.569,0.846
	c1.399,0,2.741-0.706,3.625-1.897c-0.075-0.387-0.132-0.757-0.189-1.119c-0.183-1.167-0.341-2.174-0.977-3.469l-0.028-0.072
	c-0.098-0.333-0.304-0.574-0.543-0.854c-0.262-0.307-0.559-0.655-0.714-1.157c-0.561-1.807-0.429-3.697-0.29-5.697
	c0.11-1.573,0.224-3.201-0.023-4.807l-0.014-0.087l0.02-0.086c0.095-0.417,0.366-0.863,0.841-0.863c0.505,0,0.843,0.537,1.055,0.941
	l0.023,0.053c0.221,0.596,0.481,1.21,0.758,1.86c0.958,2.257,2.044,4.813,1.973,7.826c0.038,0.332,0.211,0.537,0.534,0.892
	c0.316,0.347,0.708,0.779,0.945,1.488c0.205,0.61,0.204,1.293,0.203,1.954c-0.001,1.002-0.002,1.868,0.636,2.334
	c0.739,0.536,1.766,0.819,2.966,0.819c1.167,0,2.377-0.271,3.36-0.748c0.218-1.849-0.571-2.614-1.479-3.494
	c-0.59-0.57-1.199-1.16-1.538-2.061c-1.966-4.021-2.115-8.646-2.274-13.544c-0.023-0.712-0.046-1.427-0.075-2.142l-0.121-0.857
	c0-0.344-0.05-0.725-0.098-1.094c-0.059-0.451-0.12-0.918-0.097-1.35l0.072-1.398c0.216-4.239,0.461-9.043,1.262-13.195
	c0.108-0.567,0.356-1.105,0.596-1.625c0.174-0.377,0.338-0.733,0.434-1.068c0.47-1.656,0.229-3.066-0.027-4.559
	c-0.175-1.02-0.355-2.074-0.308-3.235c0.062-1.523,0.095-3.067,0.128-4.56c0.039-1.769,0.076-3.439,0.155-5.058l0.029-0.469
	c-0.261-1.874-0.188-5.194,0.164-7.438l0.03-0.208c0.257-2.399,2.014-2.66,2.757-2.66c0.401,0,0.688,0.067,0.719,0.076
	c0.23,0.047,0.473,0.072,0.705,0.072c1.969,0,2.731-1.871,2.739-1.89l0.036-0.074c0.258-0.433,0.975-0.941,1.885-1.56
	c0.226-0.153,0.502-0.341,0.593-0.418l0.03-0.033c0.878-0.972,0.953-1.889,0.953-1.898l0.028-0.133l0.522-1.394
	c0.202-0.571,0.182-1.043-0.064-1.435c-0.51-0.813-1.921-1.134-2.422-1.188l-3.867-0.368c-2.266-0.09-3.523-0.63-3.576-0.654
	l-0.102-0.044l-0.071-0.086c-1.693-2.072-4.089-2.209-4.114-2.21l-0.177-0.029c-0.468-0.081-0.95-0.123-1.426-0.123
	c-1.811,0-3.426,0.583-5.136,1.202c-0.651,0.235-1.324,0.479-2.018,0.692c-0.159,0.065-0.729,0.551-0.827,0.709
	c-0.477,0.878-1.168,1.739-1.838,2.573c-1.614,2.011-3.144,3.917-2.29,6.345c0.117-0.127,0.224-0.338,0.363-0.64
	c0.259-0.559,0.615-1.325,1.526-1.325c0.122,0,0.25,0.015,0.382,0.043l0.504,0.111l-0.165,0.488
	c-0.497,1.468-0.71,3.056-0.937,4.737c-0.082,0.607-0.166,1.229-0.265,1.867l-0.021,0.134c-0.104,0.677-0.194,1.261-0.526,2.354
	l-0.057,0.208c-0.018,0.071-2.013,8.29-2.193,11.246l-0.015,0.245l-0.211,0.125c-0.45,0.265-0.586,0.708-0.759,1.267
	c-0.114,0.37-0.244,0.79-0.486,1.193c-0.113,0.188-0.294,0.337-0.487,0.496c-0.143,0.118-0.305,0.252-0.38,0.362
	c-0.469,0.695-1.109,2.185-1.394,2.972c-0.548,1.51-0.767,2.851-1.02,4.403c-0.094,0.579-0.192,1.177-0.312,1.813l-0.071,0.376
	l-0.367,0.004c0,0.004,0,0.008,0,0.011c0.002,0.266,0,0.422-0.055,0.563c-0.071,0.182-0.18,0.344-0.276,0.488
	c-0.061,0.091-0.154,0.228-0.165,0.281c-0.021,0.16-0.086,0.629-0.562,0.706c-0.248,0.391-0.362,0.712-0.492,1.081
	c-0.099,0.281-0.212,0.6-0.396,0.972c-0.132,0.272-0.38,0.393-0.561,0.48c-0.226,0.111-0.237,0.134-0.249,0.216
	c-0.053,0.389-0.234,0.623-0.538,0.699c-0.357,0.74-0.756,1.907-0.926,2.45c-0.888,2.846-1.174,5.992-0.85,9.352
	c0.063,0.405,0.062,0.691-0.015,0.906c0.036,0.049,0.08,0.109,0.134,0.185l0.194,0.27l-0.194,0.27
	c-0.421,0.585-0.298,0.917-0.259,1.026c0.255,0.69,1.461,1.304,3.587,1.826c0.059,0.015,0.335,0.095,0.744,0.213
	c3.136,0.908,4.965,1.399,5.445,1.46c0.291-0.21,0.962-0.882,1.155-1.169c0.069-0.102,0.25-0.373,0.563-0.373
	c0.566,0,0.576,0.616,0.585,1.16l0.001,0.028l0.181,0.441c0.299,0.98,0.63,1.91,0.951,2.81c0.774,2.175,1.574,4.423,1.84,7.087
	c0.101,1.01,0.048,2.022-0.004,3.002C137.651,83.02,137.568,84.588,138.168,86.169z"/>
<path fill-rule="evenodd" clip-rule="evenodd" fill="#B0CD3F" d="M120.5,34.215c0.09-0.037,0.18-0.073,0.27-0.11l0.51-0.631
	c0,0-0.215-1.817-0.058-3.424c0,0-0.985-3.394-0.836-6.368c0,0,0.191-1.522,0.358-2.728c0.239-1.729,0.241-3.156,4.015,0.825
	c0,0,0.663,1.406,1.021-0.775c0.052-0.159,1.124-4.146,1.614-4.651c0,0,0.327-0.227,0.107,3.296c0,0,0.19,1.748,0.342,1.866
	c0.151,0.118,4.616,0.515,5.427,2.071c0,0,2.389,0.549,3.161,1.868c0,0,0.953,0.645,0.167,2.508c0,0-0.215,0.018,0.062,0.449
	c0,0,0.408,0.418-0.437,1.297c0,0-0.634,1.152-3.099,1.523c0,0,1.413,2.623,0.955,6.482l-0.06,1.391
	c0.036,0.815,0.097,1.612,0,2.337c-0.578,4.351-3.329,7.158-4.513,11.427c-0.993,3.574,0.337,7.184,0.458,11.189
	c0.755,2.022,4.604,1.039,3.975,4.406c-1.892,0.194-5.179,0.672-5.884-1.327c0.565,0.996,0.168,1.29-0.332,1.549
	c-6.176,1.491-5.446-5.304-9.246-5.105c-0.683,1.578,2.469,1.817,1.801,4.375c-11.027,1.434-25.686,1.626-26.778-9.536l5.128,3.01
	c2.59-7.015,2.993-14.381,7.117-19.466C109.282,37.606,114.788,36.516,120.5,34.215 M127.144,65.882
	c-0.917-2.887-1.807-5.798-2.984-8.43C122.421,59.719,124.06,65.372,127.144,65.882"/>
<path fill="#FFFFFF" d="M126.081,69.362c-2.586,0-3.718-1.677-4.716-3.157c-0.741-1.098-1.387-2.056-2.521-2.158
	c0.019,0.225,0.219,0.443,0.674,0.858c0.694,0.634,1.644,1.502,1.209,3.166l-0.079,0.301l-0.309,0.041
	c-3.596,0.467-6.724,0.695-9.563,0.695c-11.077,0-17.043-3.58-17.733-10.644l-0.088-0.901l5.43,3.188
	c0.791-2.239,1.377-4.521,1.946-6.733c1.181-4.598,2.296-8.941,5.058-12.345c2.83-3.489,6.894-4.946,11.195-6.489
	c1.221-0.437,2.483-0.889,3.745-1.398l0.158-0.064l0.315-0.39c-0.05-0.51-0.165-1.919-0.045-3.24
	c-0.157-0.563-0.969-3.645-0.83-6.435c0.003-0.034,0.195-1.56,0.362-2.768l0.028-0.212c0.12-0.901,0.256-1.921,1.192-1.921
	c0.531,0,1.334,0.327,3.586,2.704l0.082,0.119c0.044-0.135,0.098-0.34,0.149-0.65l0.017-0.07c0.007-0.022,0.028-0.1,0.062-0.218
	c1.014-3.6,1.407-4.351,1.659-4.61l0.068-0.057l0.119-0.083l0.356-0.003l0.167,0.162c0.154,0.165,0.387,0.412,0.191,3.588
	c0.061,0.547,0.153,1.184,0.222,1.485c0.079,0.014,0.176,0.03,0.291,0.05c2.089,0.354,4.304,0.871,5.089,2.012
	c0.607,0.167,2.458,0.759,3.221,1.965c0.279,0.255,1.011,1.143,0.241,2.98c0.006,0.009,0.012,0.019,0.019,0.029
	c0.145,0.208,0.455,0.86-0.454,1.832c-0.167,0.261-0.871,1.159-2.805,1.587c0.403,0.998,1.1,3.24,0.75,6.19l-0.057,1.356
	l0.016,0.311c0.034,0.691,0.069,1.406-0.019,2.066c-0.335,2.521-1.392,4.569-2.413,6.549c-0.79,1.531-1.606,3.113-2.113,4.941
	c-0.617,2.22-0.295,4.489,0.046,6.893c0.186,1.312,0.377,2.667,0.426,4.076c0.257,0.587,0.914,0.846,1.669,1.143
	c1.222,0.481,2.743,1.079,2.3,3.445l-0.063,0.339l-0.684,0.071c-0.666,0.071-1.494,0.159-2.3,0.159
	c-1.177,0-2.076-0.193-2.714-0.586c-0.193,0.302-0.511,0.467-0.696,0.563l-0.104,0.039C127.209,69.286,126.62,69.362,126.081,69.362
	L126.081,69.362z M118.641,63.116c1.753,0,2.636,1.308,3.49,2.574c0.954,1.414,1.855,2.75,3.95,2.75c0,0,0,0,0,0
	c0.45,0,0.948-0.063,1.48-0.188c0.322-0.17,0.369-0.233,0.264-0.524c-0.082-0.136-0.15-0.282-0.204-0.436l0.836-0.381
	c0.08,0.141,0.146,0.276,0.197,0.402c0.4,0.595,1.281,0.884,2.691,0.884c0.752,0,1.514-0.081,2.188-0.153
	c0.126-1.33-0.686-1.649-1.78-2.08c-0.863-0.34-1.841-0.725-2.222-1.744l-0.026-0.071l-0.002-0.076
	c-0.042-1.388-0.234-2.745-0.421-4.057c-0.354-2.501-0.689-4.863-0.021-7.27c0.532-1.919,1.371-3.545,2.182-5.118
	c1.03-1.997,2.004-3.885,2.318-6.247c0.077-0.578,0.046-1.22,0.012-1.9l-0.017-0.355l0.06-1.431
	c0.439-3.707-0.886-6.219-0.899-6.244l-0.312-0.577l0.649-0.098c2.164-0.326,2.762-1.287,2.768-1.296l0.067-0.09
	c0.369-0.384,0.417-0.62,0.405-0.69l-0.024-0.039c-0.14-0.217-0.308-0.543-0.154-0.854c0.028-0.058,0.065-0.107,0.106-0.147
	c0.527-1.355-0.037-1.811-0.062-1.83l-0.071-0.055l-0.058-0.086c-0.549-0.938-2.255-1.51-2.867-1.652l-0.207-0.048L132.86,23.8
	c-0.54-1.038-3.549-1.548-4.538-1.716c-0.542-0.092-0.64-0.108-0.762-0.203c-0.144-0.112-0.306-0.238-0.518-2.18l-0.004-0.039
	l0.002-0.04c0.036-0.581,0.057-1.051,0.066-1.432c-0.206,0.619-0.472,1.486-0.815,2.702c-0.027,0.099-0.048,0.172-0.061,0.217
	c-0.082,0.496-0.273,1.579-1.014,1.579c-0.443,0-0.726-0.425-0.839-0.639c-1.957-2.058-2.638-2.367-2.87-2.367
	c-0.14,0.092-0.225,0.735-0.277,1.119l-0.029,0.217c-0.167,1.203-0.357,2.721-0.357,2.722c-0.14,2.826,0.812,6.149,0.822,6.183
	l0.024,0.085l-0.009,0.088c-0.151,1.539,0.054,3.307,0.057,3.325l0.023,0.193l-0.707,0.874l-0.381,0.156
	c-1.28,0.515-2.55,0.971-3.779,1.411c-4.176,1.498-8.122,2.912-10.79,6.201c-2.634,3.248-3.726,7.496-4.881,11.993
	c-0.619,2.405-1.257,4.893-2.162,7.342l-0.191,0.517L94.089,59.3c1.068,5.898,6.676,8.886,16.686,8.886
	c2.713,0,5.698-0.211,9.118-0.645c0.126-0.925-0.398-1.405-0.999-1.953c-0.57-0.521-1.28-1.17-0.839-2.19l0.114-0.262l0.286-0.015
	C118.518,63.118,118.579,63.116,118.641,63.116z M127.812,66.46l-0.743-0.123c-1.462-0.242-2.736-1.481-3.495-3.399
	c-0.711-1.8-0.919-4.28,0.219-5.766l0.471-0.615l0.316,0.707c1.085,2.426,1.939,5.119,2.763,7.723L127.812,66.46z M124.12,58.529
	c-0.358,1.09-0.257,2.628,0.313,4.069c0.475,1.202,1.188,2.101,1.993,2.545C125.72,62.919,124.993,60.633,124.12,58.529z"/>
<path fill-rule="evenodd" clip-rule="evenodd" fill="#D1E067" d="M117.127,42.033c0,0,0.92,0.829,2.912,0.042
	c0,0,0.336,0.937-0.028,1.98c0,0,4.097-1.864,2.009-7.285c0,0-1.268-2.942-5.9-3.161c0,0-3.919-0.761-7.827,4.674
	c0,0-1.73,4.664-4.455,4.925c0,0-5.225,2.292-10.698,15.011c0,0-0.73,1.702-1.007,3.412l-0.84,2.664
	c-0.457,0.997,0.087,0.427-0.979,3.136c0.158-0.391-0.907,2.54,2.414-0.688c0,0,3.912-3.182,5.19-4.524c0,0,0.648,0.514,2.371-0.167
	c-0.298,0.109,0.831,1.775,2.736,2.407c0,0-0.61,0.444-0.718,0.947l0.097,0.204l-1.259-0.068l-0.006,0.402l-0.555,0.042
	l-0.029,2.016l0.453,0.007l0.094,0.505l1.863,0.027c0,0,0.591,0.965,1.397,0.977c0,0,0.659-0.242,1.07-0.892l0.607-0.042
	c0,0,0.141,0.657,0.893,0.92c0,0,0.661-0.444,0.871-0.997l4.33,0.165l0.004-0.267l0.456-0.146l0.129-1.898l-0.504-0.008
	l-0.145-0.456l-3.225-0.047c0,0-0.177-1.614-3.086-2.563l-0.151-3.428c0,0,5.815-1.528,7.104-6.951
	C112.715,52.912,113.934,44.8,117.127,42.033"/>
<path fill="#FFFFFF" d="M106.998,70.019l-0.218-0.076c-0.541-0.189-0.867-0.554-1.042-0.873l-0.056,0.004
	c-0.485,0.624-1.131,0.868-1.162,0.879l-0.08,0.03l-0.086-0.001c-0.787-0.011-1.369-0.633-1.633-0.98l-2.004-0.029l-0.095-0.505
	l-0.536-0.007l0.041-2.9l0.555-0.042l0.006-0.461l1.221,0.066c0.069-0.185,0.177-0.355,0.292-0.501
	c-1.067-0.522-1.908-1.341-2.254-1.96c-0.795,0.243-1.538,0.231-1.927,0.11c-1.454,1.439-4.852,4.207-5.004,4.331
	c-1.487,1.449-2.09,1.639-2.445,1.639c-0.232,0-0.437-0.094-0.575-0.265c-0.261-0.321-0.197-0.798-0.127-1.129
	c-0.014,0.074,0.002,0.221,0.104,0.344l0.32-0.265l-0.411-0.161c0.614-1.563,0.674-1.989,0.715-2.271
	c0.037-0.258,0.074-0.448,0.261-0.862l0.822-2.605c0.286-1.733,1.002-3.415,1.033-3.486c5.483-12.74,10.717-15.155,10.937-15.251
	l0.142-0.038c2.404-0.231,4.05-4.583,4.066-4.626l0.058-0.109c3.182-4.424,6.431-4.902,7.68-4.902c0.293,0,0.492,0.025,0.572,0.038
	c4.843,0.24,6.219,3.306,6.275,3.438c2.226,5.776-2.198,7.867-2.242,7.887l-0.983,0.447l0.356-1.019
	c0.162-0.463,0.16-0.908,0.123-1.222c-0.438,0.129-0.858,0.195-1.253,0.195c-0.572,0-0.99-0.136-1.259-0.267
	c-2.848,2.823-4.001,10.295-4.014,10.372c-1.168,4.929-5.747,6.779-7.083,7.22l0.122,2.757c2.058,0.75,2.753,1.851,2.985,2.44
	l3.219,0.048l0.144,0.456l0.657,0.01l-0.183,2.695l-0.438,0.141l-0.006,0.408l-4.507-0.172c-0.313,0.509-0.824,0.862-0.891,0.907
	L106.998,70.019z M101.486,68.06l1.74,0.025l0.133,0.216c0.112,0.181,0.508,0.679,0.923,0.749c0.16-0.079,0.519-0.288,0.76-0.669
	l0.125-0.197l1.238-0.085l0.085,0.391c0.002,0.008,0.076,0.29,0.382,0.481c0.182-0.156,0.41-0.391,0.499-0.624l0.118-0.31
	l4.189,0.16l0.002-0.126l0.474-0.152l0.074-1.099l-0.351-0.006l-0.144-0.456l-3.299-0.048l-0.044-0.405
	c-0.007-0.046-0.229-1.345-2.771-2.175l-0.304-0.099l-0.181-4.118l0.36-0.096c0.056-0.015,5.566-1.53,6.772-6.611
	c0.043-0.3,1.275-8.275,4.56-11.122l0.308-0.268l0.303,0.273c0.006,0.005,0.326,0.263,1.007,0.263c0.431,0,0.911-0.104,1.426-0.307
	l0.444-0.175l0.161,0.449c0.011,0.029,0.175,0.5,0.167,1.157c0.965-0.84,2.271-2.707,0.948-6.141
	c-0.041-0.09-1.23-2.665-5.492-2.865l-0.066-0.008l0,0c0,0-0.158-0.028-0.434-0.028c-1.103,0-3.975,0.436-6.895,4.47
	c-0.227,0.584-1.951,4.804-4.733,5.154c-0.563,0.293-5.391,3.09-10.406,14.744c-0.007,0.016-0.711,1.672-0.975,3.303l-0.016,0.065
	l-0.859,2.716c-0.157,0.343-0.172,0.447-0.199,0.635c-0.048,0.338-0.114,0.797-0.733,2.384l-0.007,0.031
	c-0.02,0.095-0.031,0.167-0.037,0.224c0.227-0.107,0.716-0.422,1.669-1.349c0.069-0.059,3.934-3.206,5.178-4.512l0.291-0.305
	l0.33,0.261c-0.01-0.005,0.146,0.087,0.511,0.087c0.393,0,0.865-0.107,1.402-0.319l0.342,0.857c0.206-0.087,0.264-0.293,0.241-0.385
	c0.072,0.281,0.982,1.432,2.471,1.925l0.852,0.283l-0.726,0.528c-0.128,0.094-0.381,0.328-0.493,0.545l0.35,0.735l-1.554-0.084
	l-0.005,0.344l-0.555,0.042l-0.016,1.133l0.369,0.005L101.486,68.06z"/>
<path fill="#656B6B" d="M33.178,53.271c-0.934,0.166-1.822,0.503-2.663,1.011c-0.842,0.51-1.563,1.408-2.166,2.696
	c-1.226,2.784-2.493,5.685-3.801,8.708c-1.308,3.021-2.668,6.194-4.081,9.517c-0.415,0.955-0.856,2.088-1.324,3.395
	c-0.467,1.31-0.897,2.566-1.292,3.771h-2.43c-1.973-4.88-3.791-9.331-5.451-13.349C8.307,65,6.583,60.884,4.798,56.666
	c-0.416-0.955-1.086-1.697-2.01-2.227C1.863,53.909,0.935,53.572,0,53.427v-2.056h14.215v2.18c-0.623,0.021-1.402,0.151-2.336,0.39
	c-0.936,0.239-1.402,0.565-1.402,0.979c0,0.062,0.051,0.223,0.156,0.482c0.104,0.259,0.208,0.555,0.312,0.886
	c0.85,2.117,2.05,5.072,3.604,8.869c1.552,3.797,2.815,6.857,3.789,9.181c0.748-1.784,1.688-4.004,2.82-6.659
	c1.133-2.657,2.352-5.624,3.662-8.9c0.208-0.56,0.404-1.084,0.591-1.572c0.187-0.487,0.281-0.981,0.281-1.478
	c0-0.353-0.172-0.669-0.515-0.949s-0.753-0.524-1.23-0.732c-0.479-0.207-0.946-0.362-1.402-0.466
	c-0.457-0.104-0.831-0.176-1.122-0.218v-1.994h11.754V53.271z"/>
<path fill="#656B6B" d="M61.807,74.859c-1.288,2.452-3.011,4.404-5.171,5.856c-2.161,1.454-4.643,2.182-7.446,2.182
	c-2.473,0-4.637-0.437-6.496-1.309c-1.858-0.873-3.391-2.056-4.595-3.55c-1.205-1.496-2.103-3.24-2.695-5.233
	c-0.592-1.995-0.888-4.102-0.888-6.325c0-1.994,0.317-3.952,0.95-5.872c0.634-1.922,1.563-3.651,2.788-5.188
	c1.184-1.475,2.653-2.663,4.409-3.568c1.755-0.902,3.722-1.354,5.903-1.354c2.243,0,4.164,0.354,5.763,1.06
	c1.599,0.706,2.896,1.672,3.894,2.897c0.955,1.164,1.667,2.535,2.134,4.113c0.468,1.578,0.701,3.292,0.701,5.14v2.055H40.717
	c0,2.02,0.192,3.852,0.577,5.496c0.384,1.645,0.991,3.091,1.822,4.341c0.81,1.208,1.869,2.16,3.177,2.857
	c1.309,0.697,2.866,1.045,4.673,1.045c1.849,0,3.443-0.433,4.782-1.3c1.34-0.865,2.632-2.426,3.878-4.681L61.807,74.859z
	 M54.923,63.146c0-1.159-0.099-2.402-0.296-3.727c-0.198-1.325-0.514-2.432-0.95-3.324c-0.479-0.951-1.133-1.729-1.962-2.329
	c-0.832-0.6-1.9-0.901-3.21-0.901c-2.18,0-3.993,0.905-5.436,2.717c-1.444,1.813-2.227,4.334-2.352,7.563H54.923z"/>
<path fill="#656B6B" d="M84.332,80.748c-1.351,0.561-2.628,1.034-3.833,1.418c-1.205,0.384-2.679,0.576-4.424,0.576
	c-2.575,0-4.387-0.649-5.436-1.947c-1.049-1.298-1.573-3.13-1.573-5.498v-20.81h-5.545v-2.991h5.669v-9.564h5.671v9.564h8.815v2.991
	h-8.753v17.165c0,1.288,0.047,2.363,0.14,3.225c0.094,0.861,0.316,1.615,0.67,2.258c0.332,0.603,0.831,1.059,1.496,1.371
	c0.664,0.312,1.557,0.468,2.678,0.468c0.52,0,1.283-0.047,2.291-0.141s1.718-0.212,2.134-0.358V80.748z"/>
<rect id="_x3C_Slice_x3E__1_" y="0.461" fill="none" width="261.588" height="87.016"/>
</svg>
